<svg xmlns="http://www.w3.org/2000/svg" width="11" height="12" viewBox="0 0 11 12">
  <defs>
    <style>
      .cls-1 {
        fill: #4c4c4d;
        fill-rule: evenodd;
      }
    </style>
  </defs>
  <path id="_copy" data-name="ï‡ copy" class="cls-1" d="M10.407,2.8L8.184,0.742A1.994,1.994,0,0,0,7.015.293H0.63A0.66,0.66,0,0,0-.054.927V11.481a0.66,0.66,0,0,0,.684.633h9.578a0.66,0.66,0,0,0,.684-0.633v-7.6A1.7,1.7,0,0,0,10.407,2.8ZM7.243,1.19a0.932,0.932,0,0,1,.292.145L9.766,3.4a0.824,0.824,0,0,1,.157.27H7.243V1.19ZM9.98,11.27H0.858V1.138H6.331V3.882a0.66,0.66,0,0,0,.684.633H9.98V11.27ZM6.317,7.358a3.417,3.417,0,0,1-1.04-1.57,7.179,7.179,0,0,0,.1-1.267v-0.2a0.135,0.135,0,0,0-.007-0.053A0.129,0.129,0,0,0,5.4,4.218,0.491,0.491,0,0,0,5.333,3.77a0.315,0.315,0,0,0-.249-0.1H4.927a0.32,0.32,0,0,0-.3.264A3.665,3.665,0,0,0,4.8,5.828a9.675,9.675,0,0,1-.741,1.728c-0.285.534-.542,0.963-0.763,1.3a0.049,0.049,0,0,0-.014-0.026,0.124,0.124,0,0,0-.164-0.04,2.327,2.327,0,0,0-1.34,1.24,0.26,0.26,0,0,0,.043.238,0.1,0.1,0,0,0,.043.033L2.034,10.38a0.422,0.422,0,0,0,.2.046c0.428,0,.991-0.567,1.725-1.728A14.5,14.5,0,0,1,6.751,8.15,4.53,4.53,0,0,0,8.5,8.632c0.378,0,.485-0.132.506-0.251V8.374c0.007-.007.014-0.02,0.021-0.026A0.313,0.313,0,0,0,9.01,8a1.718,1.718,0,0,0-1.261-.323,7.6,7.6,0,0,0-.834.046A4.9,4.9,0,0,1,6.317,7.358Zm-4.1,2.711a3.224,3.224,0,0,1,.976-1.042A2.906,2.906,0,0,1,2.212,10.07ZM5.048,4a0.141,0.141,0,0,0,.007-0.026,0.366,0.366,0,0,1,.093.237,0.163,0.163,0,0,0,.014.033,0.192,0.192,0,0,0-.029.053c-0.014.079-.036,0.172-0.05,0.284-0.014.086-.029,0.185-0.05,0.29A1.9,1.9,0,0,1,5.048,4ZM4.165,8.361C4.271,8.183,4.378,8,4.485,7.814a8.182,8.182,0,0,0,.591-1.3,3.538,3.538,0,0,0,.905,1.161c0.064,0.053.135,0.1,0.207,0.152A11.556,11.556,0,0,0,4.165,8.361Zm4.6-.106a0.035,0.035,0,0,1,.014.02,0.627,0.627,0,0,1-.128.007A3.034,3.034,0,0,1,7.77,8.1,1.671,1.671,0,0,1,8.768,8.256Z"/>
</svg>
