<svg version="1.1" id="Layer_1" xmlns="http://www.w3.org/2000/svg" x="0px" y="0px" viewBox="0 0 10 9" width="10" height="9" style="enable-background:new 0 0 10 9;" xml:space="preserve"><style type="text/css">.st0{fill:#4C4C4D;}</style><g><polygon class="st0" points="6,8 1,8 1,2 4,2 4,1 1,1 0,1 0,2 0,8 0,9 1,9 6,9 7,9 7,8 7,6 6,6"/><polygon class="st0" points="9,0 6,0 6,1 8,1 8,2 9,2 9,4 10,4 10,1 10,0 "/><rect x="3" y="6" class="st0" width="1" height="1"/><rect x="4" y="5" class="st0" width="1" height="1"/><rect x="5" y="4" class="st0" width="1" height="1"/><rect x="6" y="3" class="st0" width="1" height="1"/><rect x="7" y="2" class="st0" width="1" height="1"/></g></svg>
